<!DOCTYPE svg PUBLIC "-//W3C//DTD SVG 1.1//EN" "http://www.w3.org/Graphics/SVG/1.1/DTD/svg11.dtd">

<!-- Uploaded to: SVG Repo, www.svgrepo.com, Transformed by: SVG Repo Mixer Tools -->
<svg fill="#ffffff" width="800px" height="800px" viewBox="0 0 24 24" id="up-alt" data-name="Flat Color" xmlns="http://www.w3.org/2000/svg" class="icon flat-color" stroke="#ffffff">

<g id="SVGRepo_bgCarrier" stroke-width="0"/>

<g id="SVGRepo_tracerCarrier" stroke-linecap="round" stroke-linejoin="round"/>

<g id="SVGRepo_iconCarrier">

<path id="primary" d="M20.84,8.61,13.23,2.69a2,2,0,0,0-2.46,0L3.16,8.61a2,2,0,0,0-.37,2.78l1.84,2.45a2,2,0,0,0,2.71.47L8,13.87V20a2,2,0,0,0,2,2h4a2,2,0,0,0,2-2V13.87l.66.44a2,2,0,0,0,2.71-.47l1.84-2.45A2,2,0,0,0,20.84,8.61Z" style="#ffffffill: #ffffff;"/>

</g>

</svg>